<mxfile host="app.diagrams.net" modified="2024-02-19T15:14:49.241Z" agent="Mozilla/5.0 (Windows NT 10.0; Win64; x64) AppleWebKit/537.36 (KHTML, like Gecko) Chrome/121.0.0.0 Safari/537.36" etag="aX0c_hdJJ8N0G8W5exMC" version="23.1.2" type="device">
  <diagram id="C5RBs43oDa-KdzZeNtuy" name="Page-1">
    <mxGraphModel dx="880" dy="460" grid="1" gridSize="10" guides="1" tooltips="1" connect="1" arrows="1" fold="1" page="1" pageScale="1" pageWidth="827" pageHeight="1169" math="0" shadow="0">
      <root>
        <mxCell id="WIyWlLk6GJQsqaUBKTNV-0" />
        <mxCell id="WIyWlLk6GJQsqaUBKTNV-1" parent="WIyWlLk6GJQsqaUBKTNV-0" />
        <mxCell id="uozinx0shXp-oK_-KLOc-1" value="" style="edgeStyle=orthogonalEdgeStyle;rounded=0;orthogonalLoop=1;jettySize=auto;html=1;" edge="1" parent="WIyWlLk6GJQsqaUBKTNV-1" source="WIyWlLk6GJQsqaUBKTNV-3" target="uozinx0shXp-oK_-KLOc-0">
          <mxGeometry relative="1" as="geometry" />
        </mxCell>
        <mxCell id="WIyWlLk6GJQsqaUBKTNV-3" value="Inicio" style="rounded=1;whiteSpace=wrap;html=1;fontSize=12;glass=0;strokeWidth=1;shadow=0;" parent="WIyWlLk6GJQsqaUBKTNV-1" vertex="1">
          <mxGeometry x="160" y="80" width="120" height="40" as="geometry" />
        </mxCell>
        <mxCell id="uozinx0shXp-oK_-KLOc-3" value="" style="edgeStyle=orthogonalEdgeStyle;rounded=0;orthogonalLoop=1;jettySize=auto;html=1;" edge="1" parent="WIyWlLk6GJQsqaUBKTNV-1" source="uozinx0shXp-oK_-KLOc-0" target="uozinx0shXp-oK_-KLOc-2">
          <mxGeometry relative="1" as="geometry" />
        </mxCell>
        <mxCell id="uozinx0shXp-oK_-KLOc-0" value="Leer las instrucciones al usuario" style="whiteSpace=wrap;html=1;rounded=1;glass=0;strokeWidth=1;shadow=0;movable=1;resizable=1;rotatable=1;deletable=1;editable=1;locked=0;connectable=1;" vertex="1" parent="WIyWlLk6GJQsqaUBKTNV-1">
          <mxGeometry x="160" y="190" width="120" height="60" as="geometry" />
        </mxCell>
        <mxCell id="uozinx0shXp-oK_-KLOc-7" value="" style="edgeStyle=orthogonalEdgeStyle;rounded=0;orthogonalLoop=1;jettySize=auto;html=1;" edge="1" parent="WIyWlLk6GJQsqaUBKTNV-1" source="uozinx0shXp-oK_-KLOc-2" target="uozinx0shXp-oK_-KLOc-6">
          <mxGeometry relative="1" as="geometry" />
        </mxCell>
        <mxCell id="uozinx0shXp-oK_-KLOc-2" value="Pedir al usuario que ingrese las medidas promedio entre los ojos y la boca de un ser humano" style="rounded=1;whiteSpace=wrap;html=1;glass=0;strokeWidth=1;shadow=0;" vertex="1" parent="WIyWlLk6GJQsqaUBKTNV-1">
          <mxGeometry x="155" y="330" width="130" height="70" as="geometry" />
        </mxCell>
        <mxCell id="uozinx0shXp-oK_-KLOc-9" value="" style="edgeStyle=orthogonalEdgeStyle;rounded=0;orthogonalLoop=1;jettySize=auto;html=1;" edge="1" parent="WIyWlLk6GJQsqaUBKTNV-1" source="uozinx0shXp-oK_-KLOc-6" target="uozinx0shXp-oK_-KLOc-8">
          <mxGeometry relative="1" as="geometry" />
        </mxCell>
        <mxCell id="uozinx0shXp-oK_-KLOc-6" value="Medida 1 distancia entre ojos y boca (ingresada por el usuario" style="shape=parallelogram;perimeter=parallelogramPerimeter;whiteSpace=wrap;html=1;fixedSize=1;rounded=1;glass=0;strokeWidth=1;shadow=0;" vertex="1" parent="WIyWlLk6GJQsqaUBKTNV-1">
          <mxGeometry x="100" y="485" width="240" height="65" as="geometry" />
        </mxCell>
        <mxCell id="uozinx0shXp-oK_-KLOc-11" value="" style="edgeStyle=orthogonalEdgeStyle;rounded=0;orthogonalLoop=1;jettySize=auto;html=1;" edge="1" parent="WIyWlLk6GJQsqaUBKTNV-1" source="uozinx0shXp-oK_-KLOc-8" target="uozinx0shXp-oK_-KLOc-10">
          <mxGeometry relative="1" as="geometry" />
        </mxCell>
        <mxCell id="uozinx0shXp-oK_-KLOc-8" value="Generar un circulo" style="whiteSpace=wrap;html=1;rounded=1;glass=0;strokeWidth=1;shadow=0;" vertex="1" parent="WIyWlLk6GJQsqaUBKTNV-1">
          <mxGeometry x="160" y="632.5" width="120" height="60" as="geometry" />
        </mxCell>
        <mxCell id="uozinx0shXp-oK_-KLOc-13" value="" style="edgeStyle=orthogonalEdgeStyle;rounded=0;orthogonalLoop=1;jettySize=auto;html=1;" edge="1" parent="WIyWlLk6GJQsqaUBKTNV-1" source="uozinx0shXp-oK_-KLOc-10" target="uozinx0shXp-oK_-KLOc-12">
          <mxGeometry relative="1" as="geometry" />
        </mxCell>
        <mxCell id="uozinx0shXp-oK_-KLOc-10" value="Hacer 2 ojos" style="whiteSpace=wrap;html=1;rounded=1;glass=0;strokeWidth=1;shadow=0;" vertex="1" parent="WIyWlLk6GJQsqaUBKTNV-1">
          <mxGeometry x="160" y="772.5" width="120" height="60" as="geometry" />
        </mxCell>
        <mxCell id="uozinx0shXp-oK_-KLOc-15" value="" style="edgeStyle=orthogonalEdgeStyle;rounded=0;orthogonalLoop=1;jettySize=auto;html=1;" edge="1" parent="WIyWlLk6GJQsqaUBKTNV-1" source="uozinx0shXp-oK_-KLOc-12" target="uozinx0shXp-oK_-KLOc-14">
          <mxGeometry relative="1" as="geometry" />
        </mxCell>
        <mxCell id="uozinx0shXp-oK_-KLOc-12" value="Generar una figura con forma de boca a la distancia 1 (medida de los ojos a la boca." style="whiteSpace=wrap;html=1;rounded=1;glass=0;strokeWidth=1;shadow=0;" vertex="1" parent="WIyWlLk6GJQsqaUBKTNV-1">
          <mxGeometry x="160" y="912.5" width="120" height="60" as="geometry" />
        </mxCell>
        <mxCell id="uozinx0shXp-oK_-KLOc-20" value="" style="edgeStyle=orthogonalEdgeStyle;rounded=0;orthogonalLoop=1;jettySize=auto;html=1;" edge="1" parent="WIyWlLk6GJQsqaUBKTNV-1" source="uozinx0shXp-oK_-KLOc-14" target="uozinx0shXp-oK_-KLOc-19">
          <mxGeometry relative="1" as="geometry" />
        </mxCell>
        <mxCell id="uozinx0shXp-oK_-KLOc-29" style="edgeStyle=orthogonalEdgeStyle;rounded=0;orthogonalLoop=1;jettySize=auto;html=1;" edge="1" parent="WIyWlLk6GJQsqaUBKTNV-1" source="uozinx0shXp-oK_-KLOc-14" target="uozinx0shXp-oK_-KLOc-2">
          <mxGeometry relative="1" as="geometry">
            <Array as="points">
              <mxPoint x="430" y="365" />
            </Array>
          </mxGeometry>
        </mxCell>
        <mxCell id="uozinx0shXp-oK_-KLOc-14" value="La figura es realista?" style="rhombus;whiteSpace=wrap;html=1;rounded=1;glass=0;strokeWidth=1;shadow=0;" vertex="1" parent="WIyWlLk6GJQsqaUBKTNV-1">
          <mxGeometry x="380" y="898.75" width="100" height="87.5" as="geometry" />
        </mxCell>
        <mxCell id="uozinx0shXp-oK_-KLOc-16" value="si" style="text;html=1;align=center;verticalAlign=middle;resizable=0;points=[];autosize=1;strokeColor=none;fillColor=none;" vertex="1" parent="WIyWlLk6GJQsqaUBKTNV-1">
          <mxGeometry x="500" y="970" width="30" height="30" as="geometry" />
        </mxCell>
        <mxCell id="uozinx0shXp-oK_-KLOc-17" value="no" style="text;html=1;align=center;verticalAlign=middle;resizable=0;points=[];autosize=1;strokeColor=none;fillColor=none;" vertex="1" parent="WIyWlLk6GJQsqaUBKTNV-1">
          <mxGeometry x="350" y="850" width="40" height="30" as="geometry" />
        </mxCell>
        <mxCell id="uozinx0shXp-oK_-KLOc-22" value="" style="edgeStyle=orthogonalEdgeStyle;rounded=0;orthogonalLoop=1;jettySize=auto;html=1;" edge="1" parent="WIyWlLk6GJQsqaUBKTNV-1" source="uozinx0shXp-oK_-KLOc-19" target="uozinx0shXp-oK_-KLOc-21">
          <mxGeometry relative="1" as="geometry" />
        </mxCell>
        <mxCell id="uozinx0shXp-oK_-KLOc-19" value="Agregar color rojo a la nariz" style="whiteSpace=wrap;html=1;rounded=1;glass=0;strokeWidth=1;shadow=0;" vertex="1" parent="WIyWlLk6GJQsqaUBKTNV-1">
          <mxGeometry x="550" y="912.5" width="120" height="60" as="geometry" />
        </mxCell>
        <mxCell id="uozinx0shXp-oK_-KLOc-24" value="" style="edgeStyle=orthogonalEdgeStyle;rounded=0;orthogonalLoop=1;jettySize=auto;html=1;" edge="1" parent="WIyWlLk6GJQsqaUBKTNV-1" source="uozinx0shXp-oK_-KLOc-21" target="uozinx0shXp-oK_-KLOc-23">
          <mxGeometry relative="1" as="geometry" />
        </mxCell>
        <mxCell id="uozinx0shXp-oK_-KLOc-21" value="Hacer la nariz redonda y que este un 10% sobre los ojos" style="whiteSpace=wrap;html=1;rounded=1;glass=0;strokeWidth=1;shadow=0;" vertex="1" parent="WIyWlLk6GJQsqaUBKTNV-1">
          <mxGeometry x="550" y="772.5" width="120" height="60" as="geometry" />
        </mxCell>
        <mxCell id="uozinx0shXp-oK_-KLOc-26" value="" style="edgeStyle=orthogonalEdgeStyle;rounded=0;orthogonalLoop=1;jettySize=auto;html=1;" edge="1" parent="WIyWlLk6GJQsqaUBKTNV-1" source="uozinx0shXp-oK_-KLOc-23" target="uozinx0shXp-oK_-KLOc-25">
          <mxGeometry relative="1" as="geometry" />
        </mxCell>
        <mxCell id="uozinx0shXp-oK_-KLOc-23" value="Hacer una cicatriz en la MejÃ­a" style="whiteSpace=wrap;html=1;rounded=1;glass=0;strokeWidth=1;shadow=0;" vertex="1" parent="WIyWlLk6GJQsqaUBKTNV-1">
          <mxGeometry x="550" y="632.5" width="120" height="60" as="geometry" />
        </mxCell>
        <mxCell id="uozinx0shXp-oK_-KLOc-28" value="" style="edgeStyle=orthogonalEdgeStyle;rounded=0;orthogonalLoop=1;jettySize=auto;html=1;" edge="1" parent="WIyWlLk6GJQsqaUBKTNV-1" source="uozinx0shXp-oK_-KLOc-25" target="uozinx0shXp-oK_-KLOc-27">
          <mxGeometry relative="1" as="geometry" />
        </mxCell>
        <mxCell id="uozinx0shXp-oK_-KLOc-25" value="Colorear los labios de color rojo" style="whiteSpace=wrap;html=1;rounded=1;glass=0;strokeWidth=1;shadow=0;" vertex="1" parent="WIyWlLk6GJQsqaUBKTNV-1">
          <mxGeometry x="550" y="492.5" width="120" height="60" as="geometry" />
        </mxCell>
        <mxCell id="uozinx0shXp-oK_-KLOc-31" value="" style="edgeStyle=orthogonalEdgeStyle;rounded=0;orthogonalLoop=1;jettySize=auto;html=1;" edge="1" parent="WIyWlLk6GJQsqaUBKTNV-1" source="uozinx0shXp-oK_-KLOc-27" target="uozinx0shXp-oK_-KLOc-30">
          <mxGeometry relative="1" as="geometry" />
        </mxCell>
        <mxCell id="uozinx0shXp-oK_-KLOc-27" value="Colorear los labios de color rojo" style="whiteSpace=wrap;html=1;rounded=1;glass=0;strokeWidth=1;shadow=0;" vertex="1" parent="WIyWlLk6GJQsqaUBKTNV-1">
          <mxGeometry x="550" y="352.5" width="120" height="60" as="geometry" />
        </mxCell>
        <mxCell id="uozinx0shXp-oK_-KLOc-30" value="Fin" style="ellipse;whiteSpace=wrap;html=1;rounded=1;glass=0;strokeWidth=1;shadow=0;" vertex="1" parent="WIyWlLk6GJQsqaUBKTNV-1">
          <mxGeometry x="570" y="202.5" width="80" height="80" as="geometry" />
        </mxCell>
      </root>
    </mxGraphModel>
  </diagram>
</mxfile>
